PathFileType	4	(X/Y/Z)	/Users/itak/Documents/Research/Walk-IL/dataset/trc/00126_00007.trc
DataRate	CameraRate	NumFrames	NumMarkers	Units	OrigDataRate	OrigDataStartFrame	OrigNumFrames
100.000000	100.000000	4	55	mm	100.000000	653	747
Frame#	Time	RPSI			LPSI			L3			STRN			T10			C7			CLAV			RBAK			LBAK			LSHO			LUPA			LAEL			LAOL			LWTS			LWPS			LFRA			LIFD			LHPS			LHTS			RSHO			RUPA			RAEL			RAOL			RWTS			RWPS			RFRA			RIFD			RHTS			RHPS			RBHD			LFHD			RFHD			LBHD			LHIP			RHIP			RASI			LASI			LKNE			LTHI			LANK			LTIP			LTOE			LMT1			LMT5			LHEE			RKNE			RTHI			RANK			RTIP			RTOE			RMT1			RMT5			RHEE			*53			*54			
		X1	Y1	Z1	X2	Y2	Z2	X3	Y3	Z3	X4	Y4	Z4	X5	Y5	Z5	X6	Y6	Z6	X7	Y7	Z7	X8	Y8	Z8	X9	Y9	Z9	X10	Y10	Z10	X11	Y11	Z11	X12	Y12	Z12	X13	Y13	Z13	X14	Y14	Z14	X15	Y15	Z15	X16	Y16	Z16	X17	Y17	Z17	X18	Y18	Z18	X19	Y19	Z19	X20	Y20	Z20	X21	Y21	Z21	X22	Y22	Z22	X23	Y23	Z23	X24	Y24	Z24	X25	Y25	Z25	X26	Y26	Z26	X27	Y27	Z27	X28	Y28	Z28	X29	Y29	Z29	X30	Y30	Z30	X31	Y31	Z31	X32	Y32	Z32	X33	Y33	Z33	X34	Y34	Z34	X35	Y35	Z35	X36	Y36	Z36	X37	Y37	Z37	X38	Y38	Z38	X39	Y39	Z39	X40	Y40	Z40	X41	Y41	Z41	X42	Y42	Z42	X43	Y43	Z43	X44	Y44	Z44	X45	Y45	Z45	X46	Y46	Z46	X47	Y47	Z47	X48	Y48	Z48	X49	Y49	Z49	X50	Y50	Z50	X51	Y51	Z51	X52	Y52	Z52	X53	Y53	Z53	X54	Y54	Z54	X55	Y55	Z55	

654	6.53	-285.843994140625	1126.953979492188	1106.5751953125	-248.1218109130859	1126.870361328125	975.5903930664062	-274.1117553710938	1158.66357421875	1038.051513671875	-77.05841064453125	1370.585205078125	1098.037231445312	-315.5101623535156	1306.453979492188	1035.107299804688	-301.6600952148438	1600.65771484375	1021.174194335938	-120.7132034301758	1501.799072265625	1078.715087890625	-365.7557678222656	1416.10546875	1098.5986328125	-280.5135498046875	1577.169677734375	922.170166015625	-179.1331787109375	1566.318603515625	877.0577392578125	-184.1427764892578	1433.313598632812	806.4827270507812	-174.5696868896484	1215.706176757812	787.938720703125	-249.1882781982422	1204.273193359375	834.3154296875	-77.35370635986328	961.53955078125	849.904052734375	-153.5566864013672	932.8031616210938	812.4659423828125	-156.6247711181641	1099.580688476562	787.959228515625	-65.76820373535156	770.4376220703125	882.6930541992188	-123.7325897216797	858.2509155273438	819.3998413085938	-59.01210403442383	871.5721435546875	844.5603637695312	-291.4449462890625	1589.750732421875	1210.8818359375	-317.9594421386719	1517.012573242188	1271.76416015625	-294.7214050292969	1223.780883789062	1314.1337890625	-283.0189514160156	1216.489990234375	1218.882690429688	-95.36840057373047	1025.226806640625	1348.151245117188	-167.1487121582031	991.126220703125	1369.00048828125	-258.2472229003906	1157.739868164062	1340.110961914062	-18.06363296508789	845.7212524414062	1347.407104492188	-39.29265975952148	929.6447143554688	1367.410888671875	-105.6484146118164	905.7731323242188	1386.968505859375	-244.1041564941406	1790.2763671875	1118.478637695312	-81.88451385498047	1826.319213867188	973.7478637695312	-74.14797973632812	1838.788452148438	1103.006713867188	-259.2744750976562	1782.194580078125	984.744384765625	-122.6021499633789	1042.99267578125	902.0546875	-196.8791809082031	1036.764282226562	1259.804809570312	-106.3108596801758	1112.857543945312	1232.042846679688	-35.56241226196289	1112.832885742188	975.260498046875	-38.22961807250977	542.8984985351562	975.6972045898438	-72.16423034667969	686.5647583007812	932.5674438476562	-173.8031311035156	44.19672012329102	935.7916259765625	-134.7659301757812	295.142333984375	915.5725708007812	21.18466567993164	38.57659149169922	1071.962280273438	-67.63988494873047	41.82675170898438	1075.503295898438	-49.17941665649414	43.71956634521484	960.4947509765625	-261.0309753417969	43.73534774780273	968.1500854492188	-198.6569061279297	543.697509765625	1209.640747070312	-174.9794464111328	823.3626098632812	1250.927001953125	-290.7501220703125	32.65464401245117	1143.780395507812	-225.2495269775391	410.0328369140625	1207.723876953125	-48.60483169555664	42.88106918334961	1153.050048828125	-98.72743988037109	42.7639045715332	1099.339111328125	-167.6996307373047	43.50210189819336	1203.703125	-331.8162536621094	36.65069198608398	1081.627685546875	nan	nan	nan	nan	nan	nan	
655	6.54	-283.4117431640625	1127.1533203125	1107.648193359375	-245.4311370849609	1127.307250976562	976.76611328125	-271.459716796875	1158.585815429688	1039.173461914062	-75.11746978759766	1370.732788085938	1099.153686523438	-313.4684448242188	1306.171630859375	1035.185424804688	-300.0707092285156	1600.409423828125	1021.346008300781	-119.1174621582031	1501.881225585938	1079.721069335938	-364.0073852539062	1415.511840820312	1098.270385742188	-278.4591064453125	1576.9951171875	922.4071044921875	-176.8792419433594	1566.3896484375	877.73583984375	-181.2271270751953	1433.41162109375	807.0408325195312	-170.6906890869141	1215.798217773438	788.512939453125	-245.5948028564453	1204.161010742188	834.3714599609375	-73.58041381835938	961.6605224609375	850.8988037109375	-149.4931488037109	932.907470703125	812.865234375	-152.5384063720703	1099.72607421875	788.5585327148438	-62.13897705078125	770.5267333984375	883.5326538085938	-119.6403961181641	858.3902587890625	819.9089965820312	-55.13126754760742	871.7371826171875	845.5694580078125	-290.9072875976562	1589.167358398438	1211.091064453125	-317.7503662109375	1516.121337890625	1271.558349609375	-294.785400390625	1222.643676757812	1311.9951171875	-281.2506408691406	1215.797973632812	1216.916015625	-98.03760528564453	1021.942626953125	1348.161743164062	-170.5987854003906	988.5931396484375	1367.559692382812	-259.3612670898438	1156.282836914062	1338.12646484375	-23.03556060791016	841.4671630859375	1347.639526367188	-43.5308837890625	925.5507202148438	1367.751098632812	-110.4496765136719	902.4002685546875	1386.076416015625	-243.04638671875	1790.32275390625	1119.020141601562	-80.56367492675781	1826.482666015625	974.6250610351562	-73.08974456787109	1838.864624023438	1103.920288085938	-257.9246520996094	1782.31640625	985.2279052734375	-120.0764923095703	1043.33447265625	903.31201171875	-194.6225280761719	1036.6259765625	1260.654907226562	-103.9817047119141	1112.85888671875	1233.124877929688	-32.64862442016602	1112.99609375	976.3748168945312	-40.92498779296875	542.687255859375	974.3760986328125	-73.3076171875	686.7399291992188	931.7950439453125	-174.1419677734375	43.93538284301758	935.6724243164062	-136.3142242431641	294.8318481445312	914.8449096679688	21.00519752502441	38.70318984985352	1071.95068359375	-67.85881805419922	41.76767349243164	1075.455932617188	-49.46238327026367	43.78237533569336	960.4143676757812	-261.3830261230469	43.06121444702148	968.0704956054688	-198.3631744384766	543.73193359375	1209.558349609375	-173.5274658203125	823.201904296875	1251.412719726562	-290.7330322265625	32.80085754394531	1143.692138671875	-225.2590637207031	410.219970703125	1207.563232421875	-48.64756011962891	42.89584350585938	1153.123657226562	-98.72502136230469	42.78338623046875	1099.321166992188	-167.6850891113281	43.51286315917969	1203.665893554688	-331.800537109375	36.81740570068359	1081.500366210938	nan	nan	nan	nan	nan	nan	
656	6.55	-281.0433349609375	1127.442138671875	1108.768798828125	-242.85205078125	1127.91552734375	977.9776611328125	-268.9103698730469	1158.714721679688	1040.364868164062	-73.21859741210938	1370.989868164062	1100.285400390625	-311.5441589355469	1306.012817382812	1035.313110351562	-298.48486328125	1600.286376953125	1021.541198730469	-117.5179443359375	1502.0966796875	1080.740478515625	-362.2481689453125	1415.064697265625	1098.006103515625	-276.435546875	1576.949340820312	922.6751098632812	-174.6788940429688	1566.601440429688	878.4370727539062	-178.3363189697266	1433.670532226562	807.6024780273438	-166.7652435302734	1216.061889648438	789.0913696289062	-241.9525146484375	1204.199951171875	834.421630859375	-69.81732940673828	961.9140625	851.8233032226562	-145.4041900634766	933.176025390625	813.1683349609375	-148.3968658447266	1100.049560546875	789.1239013671875	-58.53070831298828	770.7236938476562	884.1783447265625	-115.5485000610352	858.6828002929688	820.2787475585938	-51.2362060546875	872.0288696289062	846.4474487304688	-290.3579406738281	1588.753295898438	1211.309326171875	-317.5423583984375	1515.414184570312	1271.347290039062	-295.0566101074219	1221.664306640625	1309.652587890625	-279.4379272460938	1215.283813476562	1214.771362304688	-101.1395568847656	1018.755676269531	1348.286743164062	-174.5108032226562	986.1500244140625	1365.863037109375	-260.7737731933594	1154.963500976562	1335.94287109375	-28.44535255432129	837.3344116210938	1348.16650390625	-48.32107162475586	921.561279296875	1368.362915039062	-115.8301315307617	899.143798828125	1385.102172851562	-242.0379791259766	1790.512329101562	1119.493286132812	-79.27021789550781	1826.745361328125	975.4486694335938	-72.08855438232422	1839.076904296875	1104.783325195312	-256.6009826660156	1782.549560546875	985.6345825195312	-117.5687026977539	1043.908447265625	904.472412109375	-192.4179534912109	1036.489990234375	1261.46923828125	-101.7084350585938	1112.9052734375	1234.159301757812	-29.83282852172852	1113.332397460938	977.431884765625	-43.58075332641602	542.7427978515625	972.99267578125	-74.44138336181641	687.149658203125	930.9526977539062	-174.3683624267578	43.77801513671875	935.5487060546875	-137.8128204345703	294.7550048828125	914.0615844726562	20.86668395996094	38.83218383789062	1071.91748046875	-68.00708770751953	41.78741836547852	1075.405517578125	-49.65518569946289	43.82571029663086	960.3384399414062	-261.6124877929688	42.62226104736328	967.9752197265625	-197.9892730712891	543.796630859375	1209.387329101562	-172.0679168701172	823.055908203125	1251.817504882812	-290.7090759277344	32.9742317199707	1143.5869140625	-225.1861419677734	410.420166015625	1207.343872070312	-48.65244293212891	42.89993286132812	1153.160888671875	-98.71314239501953	42.76422119140625	1099.287353515625	-167.6582641601562	43.52547073364258	1203.607177734375	-331.7796325683594	37.02009582519531	1081.358520507812	nan	nan	nan	nan	nan	nan	
657	6.56	-278.748046875	1127.81494140625	1109.894409179688	-240.3783569335938	1128.66357421875	979.1868896484375	-266.4567260742188	1159.041625976562	1041.580688476562	-71.36379241943359	1371.335083007812	1101.438720703125	-309.7268676757812	1305.958618164062	1035.48779296875	-296.8919372558594	1600.268920898438	1021.770812988281	-115.8997421264648	1502.420776367188	1081.778442382812	-360.468017578125	1414.756958007812	1097.8251953125	-274.4347839355469	1577.016723632812	922.98583984375	-172.5209350585938	1566.940063476562	879.1724243164062	-175.4713592529297	1434.078247070312	808.1741333007812	-162.8209075927734	1216.485595703125	789.6761474609375	-238.2859039306641	1204.379516601562	834.4757690429688	-66.06501770019531	962.2980346679688	852.6829833984375	-141.2949523925781	933.5985107421875	813.3943481445312	-144.2286682128906	1100.53662109375	789.660888671875	-54.92871856689453	771.031005859375	884.655517578125	-111.4558944702148	859.119384765625	820.5318603515625	-47.32199859619141	872.4436645507812	847.205322265625	-289.7720947265625	1588.504638671875	1211.548217773438	-317.3158874511719	1514.899047851562	1271.152587890625	-295.5171813964844	1220.858764648438	1307.17138671875	-277.6251220703125	1214.986450195312	1212.527954101562	-104.6642303466797	1015.680847167969	1348.507568359375	-178.8464660644531	983.8091430664062	1363.892822265625	-262.4574279785156	1153.798706054688	1333.60791015625	-34.25730514526367	833.3458251953125	1348.936767578125	-53.63982772827148	917.6942749023438	1369.203735351562	-121.7529220581055	896.01953125	1383.98876953125	-241.0774383544922	1790.82470703125	1119.904907226562	-78.01249694824219	1827.084106445312	976.2167358398438	-71.13977813720703	1839.411254882812	1105.589233398438	-255.3121948242188	1782.865844726562	985.980712890625	-115.0819244384766	1044.669555664062	905.5387573242188	-190.2979583740234	1036.35791015625	1262.240600585938	-99.52565765380859	1112.98193359375	1235.148315429688	-27.13119506835938	1113.807739257812	978.4483032226562	-46.18657684326172	543.0259399414062	971.5579223632812	-75.52222442626953	687.7412109375	930.0670166015625	-174.4969787597656	43.68841171264648	935.4166259765625	-139.3135375976562	294.8751525878906	913.20947265625	20.76753997802734	38.94984817504883	1071.865478515625	-68.09261322021484	41.86002731323242	1075.346069335938	-49.7649040222168	43.84238815307617	960.260498046875	-261.7314453125	42.36666107177734	967.8685913085938	-197.5316162109375	543.88037109375	1209.171020507812	-170.6465301513672	822.9276733398438	1252.162109375	-290.6842346191406	33.16001892089844	1143.469604492188	-225.0185546875	410.62255859375	1207.093505859375	-48.62137985229492	42.89493942260742	1153.16259765625	-98.69155883789062	42.72032165527344	1099.24609375	-167.6233825683594	43.53750610351562	1203.534790039062	-331.7565307617188	37.24093246459961	1081.211547851562	nan	nan	nan	nan	nan	nan	
